<svg width="288" height="80" viewBox="0 0 288 80" fill="none" xmlns="http://www.w3.org/2000/svg">
<path d="M76.3999 31.2752L48.7245 3.59957C43.9251 -1.19986 36.0744 -1.19986 31.275 3.59957L3.59954 31.2752C-1.19985 36.0746 -1.19985 43.9254 3.59954 48.7248L31.275 76.4004C36.0744 81.1999 43.9295 81.1999 48.7289 76.4004L76.4044 48.7248C81.1993 43.9254 81.1993 36.0746 76.3999 31.2752ZM51.1531 51.1534L40.0019 62.3046L17.6997 40.0022L40.0019 17.6998L51.1531 28.851L40.0019 40.0022L51.1531 51.1534Z" fill="black"/>
<path d="M130.318 22.1283H123.124C122.267 26.7181 118.756 28.0533 115.587 28.0533C111.134 28.0533 107.751 24.6318 107.751 18.2478C107.751 12.0724 111.134 8.52579 115.502 8.52579C118.97 8.52579 122.096 10.32 122.91 14.4508H130.104C129.033 7.56611 123.552 2.64252 115.758 2.64252C106.081 2.64252 100 8.6927 100 18.2478C100 27.9281 105.867 33.9365 115.544 33.9365C123.381 33.9365 129.204 29.1381 130.318 22.1283Z" fill="black"/>
<path d="M156.092 22.0865C156.092 13.9501 150.268 10.2783 143.887 10.2783C137.507 10.2783 131.683 13.9501 131.683 22.0865C131.683 30.223 137.507 33.9365 143.887 33.9365C150.268 33.9365 156.092 30.223 156.092 22.0865ZM138.877 22.0865C138.877 17.3298 141.104 15.6191 143.887 15.6191C146.671 15.6191 148.898 17.3298 148.898 22.0865C148.898 26.8015 146.756 28.5957 143.887 28.5957C141.018 28.5957 138.877 26.8015 138.877 22.0865Z" fill="black"/>
<path d="M165.984 33.3941V21.711C165.984 17.7471 167.226 15.786 170.095 15.786C173.478 15.786 173.65 18.4147 173.65 21.6276V33.3941H180.715V21.711C180.715 17.7471 181.957 15.786 184.826 15.786C188.209 15.786 188.38 18.4147 188.38 21.6276V33.3941H195.446V19.9168C195.446 13.8249 193.605 10.4452 187.695 10.4452C184.441 10.4452 181.572 11.7386 179.816 14.2422C178.745 11.7804 176.647 10.4452 172.964 10.4452C169.496 10.4452 167.012 12.2394 165.984 13.9084V10.9459H158.919V33.3941H165.984Z" fill="black"/>
<path d="M206.277 33.3941V21.711C206.277 17.7471 207.519 15.786 210.388 15.786C213.771 15.786 213.942 18.4147 213.942 21.6276V33.3941H221.008V21.711C221.008 17.7471 222.25 15.786 225.119 15.786C228.502 15.786 228.673 18.4147 228.673 21.6276V33.3941H235.739V19.9168C235.739 13.8249 233.897 10.4452 227.988 10.4452C224.733 10.4452 221.864 11.7386 220.109 14.2422C219.038 11.7804 216.94 10.4452 213.257 10.4452C209.788 10.4452 207.305 12.2394 206.277 13.9084V10.9459H199.211V33.3941H206.277Z" fill="black"/>
<path d="M262.542 22.0865C262.542 13.9501 256.719 10.2783 250.338 10.2783C243.958 10.2783 238.134 13.9501 238.134 22.0865C238.134 30.223 243.958 33.9365 250.338 33.9365C256.719 33.9365 262.542 30.223 262.542 22.0865ZM245.328 22.0865C245.328 17.3298 247.555 15.6191 250.338 15.6191C253.122 15.6191 255.348 17.3298 255.348 22.0865C255.348 26.8015 253.207 28.5957 250.338 28.5957C247.469 28.5957 245.328 26.8015 245.328 22.0865Z" fill="black"/>
<path d="M272.435 13.9084V10.9459H265.37V33.3941H272.435V21.8779C272.435 17.7471 273.72 15.786 276.717 15.786C280.143 15.786 280.272 18.4147 280.272 21.6276V33.3941H287.337V19.9168C287.337 13.8249 285.496 10.4452 279.586 10.4452C275.989 10.4452 273.463 12.2394 272.435 13.9084Z" fill="black"/>
<path d="M114.506 64.3089L121.229 75.7H129.836L122.171 63.1406C125.725 61.8054 128.251 59.2602 128.251 54.7956C128.251 47.285 122.214 45.4491 114.163 45.4491H102.216V75.7H109.538V64.3089H114.506ZM109.538 51.4575H114.377C117.846 51.4575 120.501 52.0834 120.501 54.879C120.501 57.7163 117.846 58.3005 114.377 58.3005H109.538V51.4575Z" fill="black"/>
<path d="M154.5 64.3924C154.5 56.2559 148.676 52.5841 142.295 52.5841C135.915 52.5841 130.091 56.2559 130.091 64.3924C130.091 72.5288 135.915 76.2424 142.295 76.2424C148.676 76.2424 154.5 72.5288 154.5 64.3924ZM137.285 64.3924C137.285 59.6357 139.512 57.925 142.295 57.925C145.079 57.925 147.305 59.6357 147.305 64.3924C147.305 69.1074 145.164 70.9016 142.295 70.9016C139.426 70.9016 137.285 69.1074 137.285 64.3924Z" fill="black"/>
<path d="M180.699 64.3924C180.699 56.2559 174.876 52.5841 168.495 52.5841C162.115 52.5841 156.291 56.2559 156.291 64.3924C156.291 72.5288 162.115 76.2424 168.495 76.2424C174.876 76.2424 180.699 72.5288 180.699 64.3924ZM163.485 64.3924C163.485 59.6357 165.712 57.925 168.495 57.925C171.279 57.925 173.505 59.6357 173.505 64.3924C173.505 69.1074 171.364 70.9016 168.495 70.9016C165.626 70.9016 163.485 69.1074 163.485 64.3924Z" fill="black"/>
<path d="M190.592 75.7V64.0169C190.592 60.053 191.834 58.0919 194.703 58.0919C198.086 58.0919 198.257 60.7206 198.257 63.9334V75.7H205.323V64.0169C205.323 60.053 206.565 58.0919 209.434 58.0919C212.817 58.0919 212.988 60.7206 212.988 63.9334V75.7H220.054V62.2227C220.054 56.1308 218.212 52.751 212.303 52.751C209.049 52.751 206.179 54.0445 204.424 56.548C203.353 54.0862 201.255 52.751 197.572 52.751C194.104 52.751 191.62 54.5452 190.592 56.2142V53.2517H183.527V75.7H190.592Z" fill="black"/>
</svg>
