<svg width="698" height="240" viewBox="0 0 698 240" fill="none" xmlns="http://www.w3.org/2000/svg">
<path d="M669.427 141.898C666.143 150.728 657.949 155.628 647.824 155.628C632.797 155.628 620.616 143.451 620.616 128.43C620.616 113.409 632.797 101.232 647.824 101.232C657.95 101.232 665.892 105.55 669.428 114.963H697.177C692.581 90.8263 672.505 75.3333 647.824 75.3333C618.488 75.3333 594.707 99.1054 594.707 128.43C594.707 157.754 618.488 181.526 647.824 181.526C672.505 181.526 693.84 164.193 697.176 141.898H669.427Z" fill="#3880FF"/>
<path d="M555.15 78.0007H584.042V179.649H555.15V78.0007Z" fill="#3880FF"/>
<path d="M586.949 53.4355C586.949 63.0649 579.14 70.871 569.507 70.871C559.874 70.871 552.065 63.0649 552.065 53.4355C552.065 43.8061 559.874 36 569.507 36C579.14 36 586.949 43.8061 586.949 53.4355Z" fill="#3880FF"/>
<path d="M472.392 90.441C477.237 81.6971 488.247 75.7277 504.103 75.7277C529.736 75.7277 543.301 92.0385 543.301 116.252V179.646H514.409V119.279C514.409 107.424 509.124 99.269 496.351 99.269C482.346 99.269 474.594 107.845 474.594 121.381V179.562H445.702V77.9978H472.392V90.441Z" fill="#3880FF"/>
<path fill-rule="evenodd" clip-rule="evenodd" d="M383.239 155.628C398.264 155.628 410.445 143.451 410.445 128.432C410.445 113.412 398.264 101.235 383.239 101.235C368.213 101.235 356.032 113.412 356.032 128.432C356.032 143.451 368.213 155.628 383.239 155.628ZM383.239 181.526C412.573 181.526 436.354 157.755 436.354 128.432C436.354 99.1082 412.573 75.337 383.239 75.337C353.904 75.337 330.124 99.1082 330.124 128.432C330.124 157.755 353.904 181.526 383.239 181.526Z" fill="#3880FF"/>
<path d="M291.086 78.0007H319.978V179.649H291.086V78.0007Z" fill="#3880FF"/>
<path d="M322.885 53.4355C322.885 63.0649 315.076 70.871 305.443 70.871C295.809 70.871 288 63.0649 288 53.4355C288 43.8061 295.809 36 305.443 36C315.076 36 322.885 43.8061 322.885 53.4355Z" fill="#3880FF"/>
<path d="M28.8 120C28.8 69.6316 69.6316 28.8 120 28.8C140.276 28.8 158.996 35.4057 174.143 46.6017C178.116 37.2507 186.122 30.0268 195.978 27.1135C175.295 10.1784 148.828 0 120 0C53.7258 0 0 53.7258 0 120C0 186.274 53.7258 240 120 240C186.274 240 240 186.274 240 120C240 106.13 237.641 92.7867 233.296 80.3656C227.385 88.3578 218.082 93.6899 207.514 94.2366C209.912 102.396 211.2 111.039 211.2 120C211.2 170.368 170.368 211.2 120 211.2C69.6316 211.2 28.8 170.368 28.8 120Z" fill="#3880FF"/>
<path d="M120 172.5C148.927 172.5 172.5 148.972 172.5 120C172.5 91.0734 148.972 67.5001 120 67.5001C91.0283 67.5001 67.5 91.0734 67.5 120C67.5 148.927 91.0733 172.5 120 172.5Z" fill="#3880FF"/>
<path d="M198.75 75.0001C213.247 75.0001 225 63.2475 225 48.7501C225 34.2526 213.247 22.5001 198.75 22.5001C184.253 22.5001 172.5 34.2526 172.5 48.7501C172.5 63.2475 184.253 75.0001 198.75 75.0001Z" fill="#3880FF"/>
</svg>
