<svg width="143" height="48" viewBox="0 0 143 48" fill="none" xmlns="http://www.w3.org/2000/svg">
<path fill-rule="evenodd" clip-rule="evenodd" d="M23.9261 0C10.7167 0 0 10.7498 0 24C0 37.2502 10.7167 48 23.9261 48C37.1355 48 47.8522 37.2502 47.8522 24C47.8522 10.7498 37.1355 0 23.9261 0ZM12.1522 38.1209L20.3984 7.40093H24.9833L16.7371 38.1209H12.1522ZM38.4821 26.8353L35.9782 28.867L31.9942 24.3349L27.8433 28.867L25.2392 26.947L28.5333 21.9349L23.1026 19.8028L24.0708 16.3312L29.8019 17.827L30.2804 12.1228H33.5299L34.0084 17.827L39.4391 16.4428L40.5519 19.8028L35.1769 21.9349L38.4821 26.8353Z" fill="#202020"/>
<path d="M71.7998 19.7302C71.4376 18.4183 70.2966 17.2361 68.1315 17.2361C66.174 17.2361 64.6833 18.1712 64.6958 19.5222C64.6833 20.6778 65.4872 21.3799 67.5087 21.8334L70.9053 22.5606C74.6641 23.3784 76.492 25.1188 76.5061 27.9632C76.4936 31.7427 72.9799 34.326 68.0019 34.326C63.1145 34.326 60.0425 32.1571 59.4587 28.4949C59.4587 28.4949 59.4259 28.2212 59.4259 28.0492L64.0339 28.0523C64.4351 29.8443 65.8353 30.7794 67.9879 30.7794C70.2169 30.7794 71.6952 29.7536 71.6952 28.3901C71.6952 27.2595 70.8398 26.5199 69.0119 26.118L65.6152 25.4034C61.7908 24.6121 60.0019 22.6903 60.016 19.7818C60.0019 16.093 63.2691 13.7302 68.0659 13.7302C72.7332 13.7302 75.429 15.8866 76.0768 19.2627C76.0768 19.2627 76.1283 19.4816 76.1283 19.7318L71.7998 19.7302Z" fill="#202020"/>
<path fill-rule="evenodd" clip-rule="evenodd" d="M86.5167 13.7302C80.8129 13.7302 77.0915 17.9241 77.0915 24.0805C77.0915 30.34 80.7598 34.326 86.7633 34.3291C91.4056 34.3291 94.5931 32.0554 95.4236 28.5887C95.4236 28.5887 95.486 28.2712 95.486 28.0992L91.0419 28.0945C90.4066 29.7818 88.8519 30.6653 86.8289 30.6653C83.7943 30.6653 81.7853 28.6653 81.7463 25.2501H95.6171V23.8084C95.6171 16.8076 91.4166 13.7302 86.5167 13.7302ZM86.5807 17.3925C89.278 17.3925 91.0919 19.3659 91.1184 22.0805H81.7588C81.9009 19.5348 83.7803 17.3925 86.5807 17.3925Z" fill="#202020"/>
<path d="M96.6642 14.2338H101.149V17.061H101.383C102.213 14.7889 104.208 13.9742 106.879 13.9742C109.563 13.9742 111.495 14.8014 112.26 17.061H112.467C113.349 14.8405 115.554 13.9742 118.444 13.9742C122.1 13.9742 124.666 16.337 124.666 20.792V34.1806H119.96V21.5191C119.96 19.0516 118.457 17.9351 116.563 17.9351C114.295 17.9351 112.959 19.4941 112.959 21.7396V34.1806H108.357V21.3237C108.357 19.2721 106.996 17.9335 105.012 17.9335C102.989 17.9335 101.357 19.5958 101.357 22.0508V34.1806H96.6642V14.2338Z" fill="#202020"/>
<path fill-rule="evenodd" clip-rule="evenodd" d="M133.381 22.7638C129.518 23.1782 125.823 24.3338 125.823 28.8279C125.823 32.7497 128.687 34.8279 132.487 34.8279C135.61 34.8279 137.477 33.3596 138.333 31.6848H138.489V34.4245H143V21.075C143 15.8022 138.709 14.2181 134.911 14.2181C130.725 14.2181 127.509 16.0883 126.472 19.724C126.472 19.724 126.362 20.1227 126.362 20.3416L130.854 20.3479C131.321 18.9843 132.643 17.8162 134.938 17.8162C137.115 17.8162 138.308 18.9327 138.308 20.8936V20.9718C138.308 22.2427 137.058 22.3748 133.985 22.6997C133.791 22.7202 133.59 22.7415 133.381 22.7638ZM138.32 24.9186V27.2689C138.32 29.4894 136.531 31.3721 133.706 31.3737C131.749 31.3737 130.348 30.4777 130.348 28.7497C130.348 26.9452 131.917 26.1915 134.017 25.8928C134.084 25.8836 134.155 25.8739 134.229 25.8638C135.512 25.6893 137.745 25.3857 138.32 24.9186Z" fill="#202020"/>
</svg>
