<svg xmlns="http://www.w3.org/2000/svg" viewBox="0 0 1251.71 181.94"><defs><style>.cls-1{fill:#9013fe;}</style></defs><g id="Layer_2" data-name="Layer 2"><g id="Layer_1-2" data-name="Layer 1"><path class="cls-1" d="M1251.46,82a5.09,5.09,0,0,0,0-.84c-4.62-36.76-29.53-68.23-65.93-78.09-36.18-9.8-75.36,4.41-97.07,34.88-22.08,30.89-21.82,74.1.52,104.78.37.52.79,1.05,1.16,1.52,0,0,.16.21.47.58.16.16.32.42.58.68l.16.16,0,.05c1.15,1.36,3.2,3.57,5.77,6,1.36,1.26,2.93,2.62,4.66,3.93a58.45,58.45,0,0,0,10.18,6.61c-2-.94-5.4-2.57-8.92-4.35a0,0,0,0,0,0-.05c-.52-.27-1-.58-1.57-.84-1.63-.84-3.2-1.73-4.67-2.57a42.42,42.42,0,0,1-5.66-4c-1.16,7.92-5.72,14.37-13.59,15.16-7.39.73-7.23,10.49,0,11.38,32.36,4,67.76,7.81,100.28,1.68a5.85,5.85,0,0,0,1.41-.48c2.26-.42,4.51-.94,6.77-1.57C1227.75,165.07,1254.61,124.69,1251.46,82ZM1135,120.65c-5.14,5.19-13.21-2.83-8-8a139.9,139.9,0,0,1,24-19.2l4.14,10.86A124.24,124.24,0,0,0,1135,120.65Zm86.74-38.13a111.67,111.67,0,0,0-18.09,1.94,200,200,0,0,1,6.76,32c.95,7.29-10.43,7.18-11.38,0q-.71-5.2-1.73-10.7a179.33,179.33,0,0,0-4.82-18.67c-1.15-3.62-2.41-7.24-3.83-10.75A119.06,119.06,0,0,0,1174,49.22c-2,.47-3.93,1-5.93,1.52a114.81,114.81,0,0,0-13.68,4.67A155,155,0,0,1,1168,84.15a125.46,125.46,0,0,1,14.63-5.93l5.41,10.23a118.2,118.2,0,0,0-16.53,6.61,157.22,157.22,0,0,1,5.93,39.8c.11,7.35-11.27,7.35-11.38,0,0-.57,0-1.15,0-1.73a143.12,143.12,0,0,0-4.83-32.62,115.87,115.87,0,0,0-3.41-11.17,142.65,142.65,0,0,0-13.63-29.05c-1.57.84-3.15,1.73-4.67,2.73a89.55,89.55,0,0,0-18.93,15.1c-5.09,5.35-13.11-2.73-8.08-8a101.82,101.82,0,0,1,22.92-17.94c.73-.47,1.52-.89,2.31-1.31a83.26,83.26,0,0,0-5.4-6.82,6.29,6.29,0,0,0-.53-.68c-4.77-5.51,3.25-13.58,8.08-8,2.88,3.35,5.61,6.81,8.18,10.43a110.35,110.35,0,0,1,14.58-5.3,30.21,30.21,0,0,1,3-.83,52.71,52.71,0,0,0-6.45-5.51,3,3,0,0,0-.47-.37c-5.93-4.25-.21-14.11,5.77-9.8a83.9,83.9,0,0,1,14.1,12.84A127.09,127.09,0,0,1,1203.68,35c7.29.21,7.29,11.59,0,11.38a109.85,109.85,0,0,0-17.15.84,126.41,126.41,0,0,1,13.38,26.43,123,123,0,0,1,21.81-2.47C1229.07,71,1229,82.37,1221.72,82.52Z"/><path class="cls-1" d="M1091.35,145.72a0,0,0,0,1,0,.05.28.28,0,0,1-.16-.26l.16.16Z"/><path class="cls-1" d="M59.53,139h2c13.21,0,17.74-8.39,17.74-20.14H116.7v1.51c0,33.74-19.52,46.16-57.17,46.16C18.14,166.51,0,147.37,0,102.05V95.33C0,50,18.14,30.87,59.53,30.87,97.18,30.87,116.7,43.3,116.7,77v6.54H79.24c0-15.1-2.95-25.18-17.74-25.18h-2C40.8,58.4,38,72.67,38,95.33v6.72C38,124.71,40.8,139,59.53,139Z"/><path class="cls-1" d="M125.19,111.34v-5.71c0-38.54,16.26-54.82,51.47-54.82s51.46,16.28,51.46,54.82v5.71c0,38.55-16.26,54.82-51.46,54.82S125.19,149.89,125.19,111.34Zm52.3,31.41c15.09,0,18.28-12.14,18.28-31.41v-5.71c0-19.27-3.19-31.4-18.28-31.4h-1.67c-15.09,0-18.27,12.13-18.27,31.4v5.71c0,19.27,3.18,31.41,18.27,31.41Z"/><path class="cls-1" d="M278.92,164.16H237V52.81h41.91c41.07,0,56.49,14.28,56.49,52.82v5.71C335.41,149.89,320,164.16,278.92,164.16Zm-1.68-23.41c21.79,0,25.82-10.14,25.82-29.41v-5.71c0-19.27-4-29.41-25.82-29.41h-8.38v64.53Z"/><path class="cls-1" d="M426.44,52.81V76.22H376.15V95.64h41.91v23.41H376.15v21.7h50.29v23.41H344.3V52.81Z"/><path class="cls-1" d="M552.78,164.16H513.36L471,92l1,25.18v47H436.48V33.22h39.43l42.38,72.19-1-25.18v-47h35.48Z"/><path class="cls-1" d="M647.26,52.81V76.22H597V95.64h41.91v23.41H597v21.7h50.29v23.41H565.12V52.81Z"/><path class="cls-1" d="M728.57,83.93l-16.44,80.23h-40.4L651,52.81h33.19l10.06,74L709,52.81h39.23l14.75,74L773,52.81h33.19L785.4,164.16H744.83Z"/><path class="cls-1" d="M857.65,52.81c20,0,42.75,3.71,42.75,31.69v2.86c0,9.42-4.36,15.41-10.9,19.27,8.38,3.85,14.25,10.56,14.25,21.84v2.86c0,29-24.48,32.83-45.26,32.83H811.55V52.81ZM843.4,76.22V95.64h13.75c4.69,0,11.06-1.15,11.06-8.86V85.07c0-7.71-6.37-8.85-11.06-8.85Zm0,42.83v21.7h15.92c5.2,0,12.24-1.57,12.24-10.28v-1.14c0-8.71-7-10.28-12.24-10.28Z"/><path class="cls-1" d="M944.48,164.16H912.63V52.81h31.85Z"/><path class="cls-1" d="M1039.2,52.81V76.22H988.91V95.64h41.9v23.41h-41.9v21.7h50.29v23.41H957.05V52.81Z"/></g></g></svg>